<?xml version="1.0" encoding="UTF-8" standalone="no"?>
<svg
   version="1.1"
   width="32"
   height="32"
   viewBox="0 0 32 32"
   xml:space="preserve"
   id="svg3"
   xmlns="http://www.w3.org/2000/svg"
   xmlns:svg="http://www.w3.org/2000/svg"><defs
   id="defs3" />

<g
   id="g6"
   transform="matrix(0.70259856,0,0,0.74550055,-0.58462047,-1.7821393)"><path
     d="M 0,0 H 48 V 48 H 0 Z"
     fill="none"
     id="path1-5" /><g
     id="Shopicon"><path
       d="M 31.278,25.525 C 34.144,23.332 36,19.887 36,16 36,9.373 30.627,4 24,4 17.373,4 12,9.373 12,16 c 0,3.887 1.856,7.332 4.722,9.525 C 9.84,28.531 5,35.665 5,44 H 43 C 43,35.665 38.16,28.531 31.278,25.525 Z M 16,16 c 0,-4.411 3.589,-8 8,-8 4.411,0 8,3.589 8,8 0,4.411 -3.589,8 -8,8 -4.411,0 -8,-3.589 -8,-8 z m 8,12 c 6.977,0 12.856,5.107 14.525,12 H 9.475 C 11.144,33.107 17.023,28 24,28 Z"
       id="path2" /></g></g></svg>
