<?xml version="1.0" encoding="UTF-8" standalone="no"?>
<!-- Created with Inkscape (http://www.inkscape.org/) -->

<svg
   width="32"
   height="32"
   viewBox="0 0 8.4666667 8.4666667"
   version="1.1"
   id="svg1"
   xml:space="preserve"
   xmlns="http://www.w3.org/2000/svg"
   xmlns:svg="http://www.w3.org/2000/svg"><defs
     id="defs1" /><g
     id="layer1"><path
       id="path1"
       style="opacity:0.910256;fill:#ffffff;fill-opacity:1;stroke:none;stroke-width:0.00655576;stroke-linejoin:round;stroke-opacity:0;paint-order:markers fill stroke"
       d="m 0.77452361,3.3219145 -0.47905194,1.9568857 0.48505852,0.01083 0.0647511,-0.3126759 0.51210141,-0.00264 0.067154,0.310081 0.4868975,0.00132 -0.4701027,-1.9611925 z m 0.33233759,0.5524926 0.1458067,0.6489686 -0.29237371,0.00289 z" /><path
       id="path2"
       style="opacity:0.910256;fill:#ffffff;fill-opacity:1;stroke:none;stroke-width:0.00655576;stroke-linejoin:round;stroke-opacity:0;paint-order:markers fill stroke"
       d="m 2.0471155,3.3293505 -0.00221,1.9482454 0.4690484,0.00371 0.00535,-0.6786588 0.083189,8.163e-4 0.3312839,0.6761749 0.5236258,-0.00333 -0.3718117,-0.7101668 c 0,0 -0.074739,-9e-5 2.034e-4,-9e-5 0.07496,0 0.17133,-0.099312 0.17133,-0.099312 0,0 0.1106619,-0.064239 0.1499257,-0.3348757 C 3.4463087,3.861245 3.3641983,3.7035266 3.3160109,3.5633411 3.2678263,3.4231519 2.917356,3.3293808 2.917356,3.3293808 Z m 0.4641446,0.4593044 0.2249503,0.00107 c 0,0 0.2031177,0.015936 0.2005547,0.224222 -0.00256,0.2082878 -0.1243048,0.2278583 -0.1243048,0.2278583 L 2.5129768,4.2412577 Z" /><path
       style="opacity:0.910256;fill:#ffffff;fill-opacity:1;stroke:none;stroke-width:0.00655576;stroke-linejoin:round;stroke-opacity:0;paint-order:markers fill stroke"
       d="m 3.6246509,3.3220692 -1.248e-4,1.9652274 0.4674818,0.0046 L 4.0884394,4.4092022 4.5836908,5.2857436 5.1445569,5.2849273 4.5359452,4.2845958 5.1029932,3.3199384 4.5621087,3.323208 4.0884616,4.1969023 4.0839764,3.3183171 Z"
       id="path3" /><path
       style="opacity:0.910256;fill:#ffffff;fill-opacity:1;stroke:none;stroke-width:0.00655576;stroke-linejoin:round;stroke-opacity:0;paint-order:markers fill stroke"
       d="m 5.279025,5.2805158 6.525e-4,-1.9572303 1.133088,0.00258 -0.00108,0.457939 -0.6796685,0.00113 -0.00108,0.2931047 0.5962649,-0.00113 -6.529e-4,0.4499558 -0.5878415,-0.00151 1.254e-4,0.3071863 0.6754782,-0.00245 -6.521e-4,0.4513016 z"
       id="path4" /><path
       style="opacity:0.910256;fill:#ffffff;fill-opacity:1;stroke:none;stroke-width:0.00655576;stroke-linejoin:round;stroke-opacity:0;paint-order:markers fill stroke"
       d="m 6.6207866,5.2782417 0.457152,0.00264 -0.00116,-1.0383481 0.5164125,1.0449452 0.4982716,0.00132 4.322e-4,-1.9619068 H 7.5985513 L 7.6149302,4.3742902 7.094968,3.3134937 6.6077582,3.3179596 Z"
       id="path5" /><path
       style="opacity:0.910256;fill:#ffffff;fill-opacity:1;stroke:none;stroke-width:0.00655576;stroke-linejoin:round;stroke-opacity:0;paint-order:markers fill stroke"
       d="m 3.6627936,3.1127268 c 0,0 1.1401743,-0.9252296 2.114276,-1.141962 0.974099,-0.2167313 0.5259179,1.2481344 0.5259179,1.2481344 L 6.1943216,3.0948266 c 0,0 0.1895541,-0.9541536 -0.7012349,-0.7164476 C 4.602297,2.6160838 3.8484502,3.1035141 3.8484502,3.1035141 Z"
       id="path6" /><path
       id="path7"
       style="opacity:0.910256;fill:#ffffff;fill-opacity:1;stroke:none;stroke-width:0.00655576;stroke-linejoin:round;stroke-opacity:0;paint-order:markers fill stroke"
       d="m 2.0202929,5.4443659 -0.1934445,0.00522 c 0,0 -0.2125333,0.7112448 0.090764,1.0108599 0.3032981,0.299615 0.9056849,0.1767731 0.9056849,0.1767731 0,0 0.6335092,-0.028564 1.9633293,-1.1708899 0.00101,-8.785e-4 0.00166,-0.00144 0.00267,-0.00232 L 4.6164958,5.4600361 C 4.4235914,5.5848142 3.3850728,6.2368656 2.7500143,6.2316949 2.048456,6.2259814 2.0202935,5.4443628 2.0202935,5.4443628 Z" /></g></svg>
