<?xml version="1.0" encoding="UTF-8" standalone="no"?>
<svg
   version="1.1"
   width="32"
   height="32"
   viewBox="0 0 32 32"
   xml:space="preserve"
   id="svg3"
   xmlns="http://www.w3.org/2000/svg"
   xmlns:svg="http://www.w3.org/2000/svg"><defs
   id="defs3" />

<g
   style="fill:#000000"
   id="g5"
   transform="matrix(-3.0926667e-4,-0.05882142,0.06782468,-3.7363222e-4,-1.2894292,31.450835)"><g
     id="g1">
	<path
   d="m 500.396,186.043 h -32.847 v -18.905 c 0,-24.968 -20.234,-45.221 -45.212,-45.221 H 45.211 C 20.263,121.917 0,142.161 0,167.138 v 188.726 c 0,24.967 20.263,45.221 45.211,45.221 h 377.135 c 24.968,0 45.212,-20.244 45.212,-45.221 v -19.795 h 32.847 c 12.47,0 22.597,-10.107 22.597,-22.578 V 208.658 c -0.01,-12.46 -10.137,-22.615 -22.606,-22.615 z m -147.96,137.288 c 0,4.648 -2.056,8.521 -5.633,10.605 -3.576,2.094 -7.965,1.971 -12.02,-0.324 l -76.807,-43.596 v 33.305 c 0,7.135 -4.58,9.945 -5.986,10.645 -1.463,0.678 -6.493,2.523 -12.087,-1.941 L 108.448,227.343 c -1.597,-1.262 -4.915,-3.892 -4.915,-8.271 v -0.516 c 0,-2.305 1.167,-4.552 3.069,-5.853 4.351,-2.983 8.578,-1.31 10.605,-0.507 l 80.985,32.398 0.564,-44.752 c 0.096,-4.552 2.123,-8.367 5.594,-10.528 3.442,-2.152 7.793,-2.267 11.886,-0.287 L 341.85,249.5 c 6.13,2.945 10.566,10.012 10.566,16.821 v 57.011 h 0.02 z"
   id="path1" />
</g></g></svg>
