<?xml version="1.0" encoding="UTF-8" standalone="no"?>
<svg
   height="19"
   viewBox="0 0 18 19"
   width="18"
   version="1.1"
   id="svg5"
   xml:space="preserve"
   xmlns="http://www.w3.org/2000/svg"
   xmlns:svg="http://www.w3.org/2000/svg"><defs
     id="defs5" /><path
     d="m 17.270361,9.7915944 c 0,-0.636984 -0.0549,-1.2494692 -0.156858,-1.8374542 H 8.9882594 v 3.4789148 h 4.6429966 c -0.203915,1.118805 -0.815662,2.066115 -1.733281,2.7031 v 2.26211 h 2.799915 c 1.631323,-1.567961 2.572471,-3.870904 2.572471,-6.6066706 z"
     fill="#4285f4"
     id="path1"
     style="stroke-width:0.800305" /><path
     d="m 8.9882594,18.570545 c 2.3293406,0 4.2822236,-0.800314 5.7096306,-2.17228 l -2.799915,-2.26211 C 11.129371,14.675141 10.149008,15.0018 8.9882594,15.0018 6.74519,15.0018 4.839365,13.425672 4.1570329,11.302391 H 1.2865316 v 2.319276 c 1.4195649,2.931761 4.3292804,4.948878 7.7017278,4.948878 z"
     fill="#34a853"
     id="path2"
     style="stroke-width:0.800305" /><path
     d="M 4.1570329,11.294225 C 3.9844891,10.755238 3.8825314,10.183585 3.8825314,9.5874334 c 0,-0.5961522 0.1019577,-1.1678052 0.2745015,-1.7067912 V 5.5613655 H 1.2865316 C 0.69831408,6.770002 0.36106937,8.1338022 0.36106937,9.5874334 c 0,1.4536306 0.33724471,2.8174306 0.92546223,4.0260676 l 2.2352265,-1.812955 z"
     fill="#fbbc05"
     id="path3"
     style="stroke-width:0.800305" /><path
     d="m 8.9882594,4.181233 c 1.2705496,0 2.3999276,0.457322 3.3018606,1.3393002 L 14.760633,2.9480968 C 13.26264,1.494466 11.3176,0.60432137 8.9882594,0.60432137 c -3.3724474,0 -6.2821629,2.01711683 -7.7017278,4.95704413 L 4.1570329,7.8806422 C 4.839365,5.757361 6.74519,4.181233 8.9882594,4.181233 Z"
     fill="#ea4335"
     id="path4"
     style="stroke-width:0.800305" /><path
     d="M 0.36106937,0.60432137 H 17.615449 V 18.570545 H 0.36106937 Z"
     fill="none"
     id="path5"
     style="stroke-width:0.800305" /></svg>
