<?xml version="1.0" encoding="UTF-8" standalone="no"?>
<svg
   version="1.1"
   width="32"
   height="32"
   viewBox="0 0 32 32"
   xml:space="preserve"
   id="svg3"
   xmlns="http://www.w3.org/2000/svg"
   xmlns:svg="http://www.w3.org/2000/svg"><defs
   id="defs3" />

<g
   id="编组"
   style="fill:none;fill-rule:evenodd;stroke:none;stroke-width:1"
   transform="matrix(2.9362761,0,0,3.2140451,-2.6173188,-42.705353)"><path
     d="m 9.0443002,19.922014 c 1.0305428,0 1.8659528,-0.74544 1.8659528,-1.664997 0,-0.919557 -0.83541,-1.664997 -1.8659528,-1.664997"
     id="路径"
     style="stroke-width:0.440653" /><path
     d="m 9.0443002,19.922014 v 0 c 1.0305428,0 1.8659528,-0.74544 1.8659528,-1.664997 0,-0.919557 -0.83541,-1.664997 -1.8659528,-1.664997"
     id="path1"
     stroke="#212121"
     stroke-linejoin="round"
     stroke-width="0.66098" /><path
     d="m 3.4464426,16.59202 c -1.0305376,0 -1.8659526,0.74544 -1.8659526,1.664997 0,0.919557 0.835415,1.664997 1.8659526,1.664997"
     id="path2-8"
     style="stroke-width:0.440653" /><path
     d="m 3.4464426,16.59202 c -1.0305376,0 -1.8659526,0.74544 -1.8659526,1.664997 0,0.919557 0.835415,1.664997 1.8659526,1.664997 v 0"
     id="path3"
     stroke="#212121"
     stroke-linejoin="round"
     stroke-width="0.66098" /><path
     d="M 3.4464426,19.922014 V 19.817952 19.29764 18.257017 16.59202 c 0,-1.37933 1.2531271,-2.497496 2.7989288,-2.497496 1.5458017,0 2.7989288,1.118166 2.7989288,2.497496 v 3.329994 c 0,1.379325 -1.2531271,2.497496 -2.7989288,2.497496"
     id="path4"
     stroke="#212121"
     stroke-linecap="round"
     stroke-linejoin="round"
     stroke-width="0.66098" /></g></svg>
