<?xml version="1.0" encoding="UTF-8" standalone="no"?>
<svg
   version="1.1"
   width="32"
   height="32"
   viewBox="0 0 32 32"
   xml:space="preserve"
   id="svg3"
   xmlns="http://www.w3.org/2000/svg"
   xmlns:svg="http://www.w3.org/2000/svg"><defs
   id="defs3" />

<g
   style="fill:#000000"
   id="g4"
   transform="matrix(1.6025413,0,0,1.5574182,-2.8804681,-2.6323972)"><path
     d="M 8.5,3 C 7.6715729,3 7,3.6715729 7,4.5 v 15 C 7,20.328427 7.6715729,21 8.5,21 h 7.011358 c 0.828427,0 1.5,-0.671573 1.5,-1.5 v -15 c 0,-0.8284271 -0.671573,-1.5 -1.5,-1.5 H 15.5 C 15.223858,3 15,3.2238576 15,3.5 15,4.3284271 14.328427,5 13.5,5 h -3 C 9.6715729,5 9,4.3284271 9,3.5 9,3.2238576 8.7761424,3 8.5,3 Z M 9.9146472,3 C 9.9699229,3.1563895 10,3.3246823 10,3.5 10,3.7761424 10.223858,4 10.5,4 h 3 C 13.776142,4 14,3.7761424 14,3.5 14,3.3246823 14.030077,3.1563895 14.085353,3 Z M 6,4.5 C 6,3.1192881 7.1192881,2 8.5,2 h 7.011358 c 1.380712,0 2.5,1.1192881 2.5,2.5 v 15 c 0,1.380712 -1.119288,2.5 -2.5,2.5 H 8.5 C 7.1192881,22 6,20.880712 6,19.5 Z"
     id="path1-1" /></g></svg>
