<?xml version="1.0" encoding="UTF-8" standalone="no"?>
<svg
   version="1.1"
   width="32"
   height="32"
   viewBox="0 0 32 32"
   xml:space="preserve"
   id="svg3"
   xmlns="http://www.w3.org/2000/svg"
   xmlns:svg="http://www.w3.org/2000/svg"><defs
   id="defs3" />

<path
   d="M 21.074192,31.01 H 5.7764711 C 5.3992881,31.01 5.0451979,30.862517 4.7886108,30.620741 4.5320237,30.378966 4.3780716,30.057404 4.3780716,29.689905 V 2.6182906 c 0,-0.3650812 0.156518,-0.6890606 0.4105392,-0.9308362 0.2540213,-0.2417756 0.6004138,-0.386841 0.9878603,-0.386841 7.1279889,0 14.8230349,0 21.9151019,0 0.390012,0 0.731273,0.1474832 0.98786,0.386841 0.256587,0.2393578 0.413105,0.5633372 0.413105,0.9308362 V 23.331207 c 0.01026,0.05077 0.02309,0.09429 0.02309,0.147482 0,0.178914 -0.08724,0.336069 -0.212967,0.449703 l -7.230622,6.890606 C 21.551442,30.932632 21.269196,31.014835 21.07419,31.01 Z M 7.6572539,4.6201926 h 0.854435 v 3.370352 h -0.854435 z m 1.575445,0 h 0.7954201 l 1.034046,1.8616722 V 4.6201926 h 0.805683 v 3.370352 H 11.062165 L 10.03325,6.1385434 V 7.9905446 H 9.2326989 Z m 3.0328591,0 h 0.890358 l 0.62094,2.4274272 0.613243,-2.4274272 h 0.864698 l -1.023782,3.370352 h -0.923713 z m 3.127797,1.6875938 c 0,-0.5512484 0.125727,-0.9791913 0.377183,-1.2838286 0.251455,-0.3070549 0.600413,-0.4593736 1.049441,-0.4593736 0.45929,0 0.813381,0.1499008 1.06227,0.4521204 0.248889,0.2998017 0.372052,0.7229091 0.372052,1.2644865 0,0.3940942 -0.05389,0.7156558 -0.16165,0.9671024 -0.107767,0.2514466 -0.266851,0.4472848 -0.469555,0.5875148 -0.205269,0.1402298 -0.461857,0.2103447 -0.767195,0.2103447 -0.31047,0 -0.569623,-0.060444 -0.772327,-0.1813317 C 15.88087,7.7439335 15.714089,7.550513 15.588361,7.2893954 15.457501,7.0306955 15.393355,6.7018806 15.393355,6.3077864 Z m 0.851869,0.00242 c 0,0.3409036 0.05132,0.585097 0.156518,0.7325801 0.102635,0.1474832 0.246323,0.2224336 0.423369,0.2224336 0.182176,0 0.325865,-0.072532 0.425934,-0.217598 0.100069,-0.1450655 0.151386,-0.4061831 0.151386,-0.783353 0,-0.3167261 -0.05389,-0.5488307 -0.156518,-0.6938961 -0.1052,-0.1474832 -0.246324,-0.2200159 -0.425934,-0.2200159 -0.171914,0 -0.31047,0.07495 -0.415671,0.2224335 -0.105201,0.1474831 -0.159084,0.3940943 -0.159084,0.7374158 z m 2.601793,-1.6900156 h 0.854435 v 3.370352 h -0.854435 z m 3.40491,1.992231 0.746668,0.2756242 c -0.05132,0.2562822 -0.130859,0.4690447 -0.238626,0.6407054 -0.107767,0.1716607 -0.241191,0.3022195 -0.402841,0.3892588 -0.159084,0.087039 -0.364354,0.1305587 -0.610678,0.1305587 -0.300206,0 -0.54653,-0.053191 -0.736405,-0.1595719 C 20.820171,7.7826176 20.655956,7.5940326 20.517398,7.3280795 20.378841,7.0621262 20.309563,6.7163872 20.309563,6.3005331 c 0,-0.5560839 0.120596,-0.9864445 0.364353,-1.2862462 0.243758,-0.2998019 0.587584,-0.4497027 1.03148,-0.4497027 0.346393,0 0.620941,0.084621 0.821079,0.2562822 0.197572,0.1716607 0.346392,0.435196 0.443895,0.7906062 l -0.7518,0.2030915 C 22.19291,5.7130184 22.16468,5.6380679 22.13647,5.5921305 22.08772,5.5123445 22.0287,5.4519007 21.961987,5.4083811 c -0.06927,-0.04352 -0.146254,-0.065279 -0.230927,-0.065279 -0.195007,0 -0.341262,0.094292 -0.443896,0.2828775 -0.07698,0.1402299 -0.118031,0.3626635 -0.118031,0.6624652 0,0.3723345 0.04618,0.6286166 0.138558,0.7664287 0.09237,0.1378121 0.22323,0.2079271 0.392578,0.2079271 0.164215,0 0.287378,-0.055609 0.369485,-0.1668252 0.08467,-0.108799 0.143689,-0.2707887 0.182177,-0.4835513 z m 1.259842,-1.992231 h 2.281059 V 5.3406821 H 24.366204 V 5.877424 h 1.321423 v 0.6866445 h -1.321423 v 0.664883 h 1.467678 V 7.9929624 H 23.511769 Z M 11.452178,23.401321 c 0.564491,0 1.075099,0.215181 1.44715,0.565755 0.369486,0.348157 0.600414,0.831709 0.600414,1.363615 0,0.531906 -0.228363,1.01304 -0.600414,1.363615 -0.369486,0.348156 -0.882659,0.563337 -1.44715,0.563337 -0.564493,0 -1.0751,-0.215181 -1.447152,-0.563337 -0.3694851,-0.348157 -0.6004141,-0.831709 -0.6004141,-1.363615 0,-0.531906 0.228363,-1.015458 0.6004141,-1.363615 0.372052,-0.350574 0.882659,-0.565755 1.447152,-0.565755 z m 0.921146,1.061396 c -0.236059,-0.222434 -0.561925,-0.357828 -0.921146,-0.357828 -0.359223,0 -0.685088,0.137812 -0.921148,0.357828 -0.236061,0.220015 -0.379749,0.529488 -0.379749,0.867974 0,0.338485 0.146254,0.645541 0.379749,0.867974 0.233494,0.222434 0.561925,0.357828 0.921148,0.357828 0.359221,0 0.685087,-0.137812 0.921146,-0.357828 0.236061,-0.220016 0.379749,-0.529489 0.379749,-0.867974 0.0025,-0.340904 -0.143688,-0.647959 -0.379749,-0.867974 z m -0.921146,-2.657115 c 1.031479,0 1.965456,0.394095 2.642846,1.032382 0.67739,0.638288 1.095626,1.518351 1.095626,2.490289 0,0.971938 -0.418236,1.852001 -1.095626,2.487872 -0.67739,0.638287 -1.611367,1.032381 -2.642846,1.032381 -1.031481,0 -1.9680241,-0.394094 -2.6428481,-1.032381 -0.67739,-0.638289 -1.095626,-1.518351 -1.095626,-2.49029 0,-0.971938 0.418236,-1.854418 1.095626,-2.490289 l 0.02309,-0.01692 c 0.674824,-0.626199 1.6011031,-1.01304 2.6197541,-1.01304 z m 2.119409,1.528023 c -0.541399,-0.510147 -1.290634,-0.824455 -2.116844,-0.824455 -0.818513,0 -1.5600491,0.309473 -2.1014481,0.809948 l -0.01796,0.01692 c -0.541399,0.510147 -0.877528,1.216132 -0.877528,1.994649 0,0.778517 0.336129,1.484502 0.877528,1.994649 0.541399,0.510146 1.2906331,0.826873 2.1168441,0.826873 0.82621,0 1.575444,-0.316727 2.116843,-0.826873 0.541399,-0.510147 0.877527,-1.216132 0.877527,-1.994649 0,-0.780935 -0.333562,-1.48692 -0.874961,-1.997066 z M 10.412999,12.110401 c -0.248889,0 -0.4490261,-0.188585 -0.4490261,-0.423108 0,-0.234522 0.2001371,-0.423107 0.4490261,-0.423107 h 9.011339 c 0.248889,0 0.449027,0.188585 0.449027,0.423107 0,0.234523 -0.200138,0.423108 -0.449027,0.423108 z m 0,6.317596 c -0.248889,0 -0.4490261,-0.188585 -0.4490261,-0.423107 0,-0.234522 0.2001371,-0.423108 0.4490261,-0.423108 h 12.423947 c 0.248889,0 0.449026,0.188586 0.449026,0.423108 0,0.234522 -0.200137,0.423107 -0.449026,0.423107 z m 0,-2.586999 c -0.248889,0 -0.4490261,-0.188585 -0.4490261,-0.423107 0,-0.234522 0.2001371,-0.423107 0.4490261,-0.423107 h 9.011339 c 0.248889,0 0.449027,0.188585 0.449027,0.423107 0,0.234522 -0.200138,0.423107 -0.449027,0.423107 z M 24.730558,13.80283 H 8.7631449 v 5.78569 H 24.730558 Z M 8.7631449,12.956615 H 24.730558 V 10.386541 H 8.7631449 Z M 8.3141169,9.5403267 H 25.179585 c 0.24889,0 0.449027,0.1885846 0.449027,0.4231072 v 3.4162891 6.634322 c 0,0.234522 -0.200137,0.423108 -0.449027,0.423108 H 8.3141169 c -0.248889,0 -0.449027,-0.191003 -0.449027,-0.423108 V 13.379723 9.9634339 c 0,-0.2321046 0.200138,-0.4231072 0.449027,-0.4231072 z M 20.543057,29.8253 v -5.157074 c 0,-0.493223 0.212967,-0.942925 0.556794,-1.266905 0.343827,-0.323978 0.821079,-0.524653 1.344516,-0.524653 H 27.8173 V 2.6158727 c 0,-0.031431 -0.01026,-0.072532 -0.04618,-0.094292 -0.02309,-0.021759 -0.05645,-0.04352 -0.100069,-0.04352 -5.64235,0 -16.413875,0 -21.9022728,0 -0.033356,0 -0.079542,0.00967 -0.1000689,0.04352 -0.028225,0.021759 -0.051317,0.062862 -0.051317,0.094292 V 29.689905 c 0,0.04352 0.010264,0.07253 0.046186,0.09429 0.023093,0.02176 0.056449,0.04352 0.1000689,0.04352 H 20.527662 Z m 1.254711,-5.157074 v 4.32053 l 5.162531,-4.927387 h -4.518498 c -0.177044,0 -0.333563,0.07495 -0.454158,0.178914 -0.112899,0.103963 -0.189875,0.261118 -0.189875,0.427943 z"
   id="path1-4"
   style="stroke-width:0.249071" /></svg>
