<?xml version="1.0" encoding="UTF-8" standalone="no"?>
<svg
   version="1.1"
   width="32"
   height="32"
   viewBox="0 0 32 32"
   xml:space="preserve"
   id="svg3"
   xmlns="http://www.w3.org/2000/svg"
   xmlns:svg="http://www.w3.org/2000/svg"><defs
   id="defs3" />

<g
   style="fill:#000000"
   id="g5"
   transform="matrix(0.02874321,0,0,0.02921035,1.0608337,0.85998016)"><path
     d="m 53.6,1023.2 c -6.4,0 -12.8,-2.4 -17.6,-8 -4.8,-4.8 -7.2,-11.2 -6.4,-18.4 L 80,222.4 C 80.8,209.6 91.2,200 104,200 h 211.2 v -3.2 C 315.2,144 336,95.2 372.8,57.6 410.4,21.6 459.2,0.8 512,0.8 c 108,0 196.8,88 196.8,196.8 0,0.8 -0.8,1.6 -0.8,2.4 v 0.8 h 212 c 12.8,0 23.2,9.6 24,22.4 L 993.6,992 c 0.8,2.4 0.8,4 0.8,6.4 -0.8,13.6 -11.2,24.8 -24.8,24.8 z m 25.6,-48 H 944 L 897.6,248.8 H 708 v 57.6 h 0.8 c 12.8,8.8 20,21.6 20,36 0,24.8 -20,44.8 -44.8,44.8 -24.8,0 -44.8,-20 -44.8,-44.8 0,-14.4 7.2,-27.2 20,-36 H 660 V 248.8 H 363.2 v 57.6 h 0.8 c 12.8,8.8 20,21.6 20,36 0,24.8 -20,44.8 -44.8,44.8 -24.8,0 -44.8,-20 -44.8,-44.8 0,-14.4 7.2,-27.2 20,-36 h 0.8 V 248.8 H 125.6 Z M 512,49.6 c -81.6,0 -148.8,66.4 -148.8,148.8 v 3.2 h 298.4 l -0.8,-1.6 v -1.6 C 660.8,116 593.6,49.6 512,49.6 Z"
     fill=""
     id="path1" /></g></svg>
