<?xml version="1.0" encoding="UTF-8" standalone="no"?>
<svg
   width="116"
   height="32"
   viewBox="0 0 116 32"
   fill="none"
   version="1.1"
   id="svg5"
   sodipodi:docname="67f74edab1afdf10f240750b_Sellifyx.svg"
   inkscape:export-filename="powernest-text.png"
   inkscape:export-xdpi="96"
   inkscape:export-ydpi="96"
   xmlns:inkscape="http://www.inkscape.org/namespaces/inkscape"
   xmlns:sodipodi="http://sodipodi.sourceforge.net/DTD/sodipodi-0.dtd"
   xmlns="http://www.w3.org/2000/svg"
   xmlns:svg="http://www.w3.org/2000/svg">
  <sodipodi:namedview
     id="namedview5"
     pagecolor="#ffffff"
     bordercolor="#000000"
     borderopacity="0.25"
     inkscape:showpageshadow="2"
     inkscape:pageopacity="0.0"
     inkscape:pagecheckerboard="0"
     inkscape:deskcolor="#d1d1d1">
    <inkscape:page
       x="0"
       y="0"
       width="116"
       height="32"
       id="page2"
       margin="0"
       bleed="0" />
  </sodipodi:namedview>
  <defs
     id="defs5">
    <clipPath
       id="clip0_120_8">
      <rect
         width="143"
         height="53"
         fill="#ffffff"
         id="rect5-7"
         x="0"
         y="0" />
    </clipPath>
  </defs>
  <text
     xml:space="preserve"
     style="font-style:normal;font-variant:normal;font-weight:normal;font-stretch:normal;font-size:11.5643px;line-height:1.3;font-family:Lastica;-inkscape-font-specification:Lastica;text-align:start;writing-mode:lr-tb;direction:ltr;text-anchor:start;opacity:0.910256;fill:#000000;stroke-width:0.481849;stroke-linejoin:round;paint-order:markers fill stroke"
     x="31.940969"
     y="17.628931"
     id="text5"
     transform="scale(0.85670936,1.167257)"><tspan
       sodipodi:role="line"
       id="tspan5"
       x="31.940969"
       y="17.628931"
       style="line-height:1.3;stroke:#000000;stroke-width:0.481849;stroke-opacity:1">powernest</tspan></text>
  <g
     clip-path="url(#clip0_120_8)"
     id="g5"
     transform="matrix(0.38237863,0,0,0.53143067,0.66169854,2.7093676)"
     style="fill:none">
    <path
       d="m 20.6412,14.6738 47.4416,0.015 c 0.0365,-4e-4 0.0728,-0.008 0.106,-0.0221 0.0332,-0.014 0.0623,-0.0342 0.0851,-0.059 0.0228,-0.0247 0.0386,-0.0533 0.0461,-0.0834 0.0076,-0.0301 0.0066,-0.0609 -0.0027,-0.09 L 63.6073,0.329287 C 63.5743,0.233833 63.4946,0.150489 63.3798,0.0912971 63.265,0.032105 63.121,1.42436e-4 62.9687,0 L 0.184674,0.0648642 C 0.157422,0.0651587 0.130169,0.0700617 0.105099,0.0792074 0.0800287,0.0883531 0.0578424,0.10146 0.0403558,0.117487 0.0228693,0.133514 0.0105859,0.152024 0.00445192,0.17148 -0.00168212,0.190937 -0.00147612,0.210797 0.00506227,0.229492 2.2769,7.29114 4.61692,15.3212 7.02513,22.3196 12.274,37.5772 24.7125,35.1773 39.082,35.1374 c 0.0906,-0.0017 0.1779,0.0218 0.249,0.0668 0.0711,0.045 0.1221,0.1091 0.1451,0.1827 l 0.6037,1.876 c 0.0087,0.0286 0.0092,0.0588 0.0015,0.0881 -0.0076,0.0294 -0.0233,0.0571 -0.0456,0.0809 -0.0224,0.0238 -0.0508,0.0431 -0.083,0.0562 -0.0322,0.0131 -0.0673,0.0197 -0.1024,0.0192 h -7.1099 c -0.2494,0 -0.2777,0.0699 -0.0848,0.2096 l 19.8927,14.2796 c 0.2462,0.1763 0.3243,0.1331 0.2345,-0.1297 l -2.2901,-6.7656 c -0.0086,-0.0269 -0.0095,-0.0555 -0.0029,-0.0834 0.0066,-0.0278 0.0207,-0.0542 0.0411,-0.077 0.0204,-0.0229 0.0465,-0.0415 0.0763,-0.0543 0.0298,-0.0129 0.0623,-0.0197 0.095,-0.0198 h 15.1099 c 0.0311,10e-5 0.0615,-0.0081 0.0886,-0.0239 0.0271,-0.0159 0.0502,-0.0389 0.0673,-0.0673 0.0171,-0.0283 0.0277,-0.061 0.0309,-0.0955 0.0033,-0.0345 -9e-4,-0.0697 -0.0122,-0.1027 l -7.958,-23.8692 c -0.0274,-0.084 -0.0802,-0.1572 -0.151,-0.2092 -0.0707,-0.0519 -0.1559,-0.08 -0.2432,-0.0802 -8.3622,0 -24.7793,0 -33.2513,0 -2.9787,0 -3.5175,-2.9658 -3.9216,-5.4605 -0.0053,-0.0351 -0.0047,-0.0708 0.0017,-0.1048 0.0064,-0.0341 0.0186,-0.0656 0.0356,-0.0925 0.017,-0.0269 0.0384,-0.0486 0.063,-0.0636 0.0245,-0.0151 0.0516,-0.0231 0.0793,-0.0235 z"
       fill="#000000"
       id="path1" />
  </g>
</svg>
