<?xml version="1.0" encoding="UTF-8" standalone="no"?>
<svg
   version="1.1"
   width="32"
   height="32"
   viewBox="0 0 32 32"
   xml:space="preserve"
   id="svg3"
   xmlns="http://www.w3.org/2000/svg"
   xmlns:svg="http://www.w3.org/2000/svg"><defs
   id="defs3" />

<g
   id="Layer_2"
   data-name="Layer 2"
   transform="matrix(0.71708482,0,0,0.63307971,-1.1046428,1.4695585)"><g
     id="invisible_box"
     data-name="invisible box"><rect
       width="48"
       height="48"
       fill="none"
       id="rect1"
       x="0"
       y="0" /></g><g
     id="Layer_7"
     data-name="Layer 7"><g
       id="g4"><path
         d="M 37.7,11.1 A 3,3 0 0 0 35.4,10 H 34.2 L 34.5,8.3 A 3.1,3.1 0 0 0 33.9,6 3.2,3.2 0 0 0 31.7,5 H 7.9 A 2.1,2.1 0 0 0 5.8,6.7 2,2 0 0 0 7.8,9 h 7.3 a 3,3 0 0 1 2.9,3.5 l -2.4,13.8 a 3,3 0 0 1 -2.9,2.5 H 4.8 a 2,2 0 0 0 -2,1.6 L 2,34.7 a 2.8,2.8 0 0 0 0.7,2.3 2.8,2.8 0 0 0 2.1,1 h 2.5 a 7,7 0 0 0 13.4,0 h 4.6 a 7,7 0 0 0 13.4,0 h 2 a 3.2,3.2 0 0 0 3.1,-2.7 L 46,22.5 Z M 14,39 a 3,3 0 0 1 -3,-3 3,3 0 0 1 6,0 3,3 0 0 1 -3,3 z m 18,0 a 3,3 0 0 1 -3,-3 3,3 0 0 1 6,0 3,3 0 0 1 -3,3 z m 0.1,-17 1.4,-8 h 1.3 l 5.9,8 z"
         id="path1-1" /><path
         d="m 4,15 h 10 a 2,2 0 0 0 0,-4 H 4 a 2,2 0 0 0 0,4 z"
         id="path2" /><path
         d="M 15,19 A 2,2 0 0 0 13,17 H 5 a 2,2 0 0 0 0,4 h 8 a 2,2 0 0 0 2,-2 z"
         id="path3" /><path
         d="m 6,23 a 2,2 0 0 0 0,4 h 6 a 2,2 0 0 0 0,-4 z"
         id="path4" /></g></g></g></svg>
