<?xml version="1.0" encoding="UTF-8" standalone="no"?>
<svg
   version="1.1"
   width="32"
   height="32"
   viewBox="0 0 32 32"
   xml:space="preserve"
   id="svg3"
   xmlns="http://www.w3.org/2000/svg"
   xmlns:svg="http://www.w3.org/2000/svg"><defs
   id="defs3" />

<g
   style="fill:#000000"
   id="g5"
   transform="matrix(0.43940487,0,0,0.43445904,3.8806817,5.3842456)"><path
     d="m 26,2 c 3,0 5.43,3.29 8.09,4.42 2.66,1.13 6.82,0.51 8.84,2.65 2.02,2.14 1.51,6.07 2.65,8.84 C 46.72,20.68 50,23 50,26 c 0,3 -3.29,5.43 -4.42,8.09 -1.13,2.66 -0.51,6.82 -2.65,8.84 -2.14,2.02 -6.07,1.53 -8.84,2.65 C 31.32,46.7 29,50 26,50 23,50 20.57,46.71 17.91,45.58 15.25,44.45 11.09,45.07 9.07,42.93 7.05,40.79 7.54,36.86 6.42,34.09 5.3,31.32 2,29 2,26 2,23 5.29,20.57 6.42,17.91 7.55,15.25 6.93,11.09 9.07,9.07 11.21,7.05 15.14,7.54 17.91,6.42 20.68,5.3 23,2 26,2 Z m 0,7.58 A 16.42,16.42 0 1 0 42.42,26 v 0 A 16.47,16.47 0 0 0 26,9.58 Z m 7.62,9.15 1.61,1.52 a 1.25,1.25 0 0 1 0,1.51 L 25.08,33.07 a 2.07,2.07 0 0 1 -1.61,0.7 2.23,2.23 0 0 1 -1.61,-0.7 L 16.37,27.6 a 1,1 0 0 1 -0.1,-1.42 l 0.1,-0.11 1.63,-1.51 a 1.1,1.1 0 0 1 1.54,-0.07 l 0.07,0.07 3.89,4 8.59,-9.8 a 1.1,1.1 0 0 1 1.53,-0.03 z"
     id="path1" /></g></svg>
