<?xml version="1.0" encoding="UTF-8" standalone="no"?>
<!-- Created with Inkscape (http://www.inkscape.org/) -->

<svg
   width="32"
   height="32"
   viewBox="0 0 8.4666667 8.4666667"
   version="1.1"
   id="svg1"
   xml:space="preserve"
   xmlns="http://www.w3.org/2000/svg"
   xmlns:svg="http://www.w3.org/2000/svg"><defs
     id="defs1" /><g
     id="layer1"><path
       id="path1"
       style="opacity:0.910256;fill:#ffffff;fill-opacity:1;stroke:none;stroke-width:0.00655576;stroke-linejoin:round;stroke-opacity:0;paint-order:markers fill stroke"
       d="m 0.77452361,3.3219145 -0.47905194,1.9568857 0.48505852,0.01083 0.0647511,-0.3126759 0.51210141,-0.00264 0.067154,0.310081 0.4868975,0.00132 -0.4701027,-1.9611925 z m 0.33233759,0.5524926 0.1458067,0.6489686 -0.29237371,0.00289 z" /><path
       id="path2"
       style="opacity:0.910256;fill:#ffffff;fill-opacity:1;stroke:none;stroke-width:0.00655576;stroke-linejoin:round;stroke-opacity:0;paint-order:markers fill stroke"
       d="m 2.0471155,3.3293505 -0.00221,1.9482454 0.4690484,0.00371 0.00535,-0.6786588 0.083189,8.163e-4 0.3312839,0.6761749 0.5236258,-0.00333 -0.3718117,-0.7101668 c 0,0 -0.074739,-9e-5 2.034e-4,-9e-5 0.07496,0 0.17133,-0.099312 0.17133,-0.099312 0,0 0.1106619,-0.064239 0.1499257,-0.3348757 C 3.4463087,3.861245 3.3641983,3.7035266 3.3160109,3.5633411 3.2678263,3.4231519 2.917356,3.3293808 2.917356,3.3293808 Z m 0.4641446,0.4593044 0.2249503,0.00107 c 0,0 0.2031177,0.015936 0.2005547,0.224222 -0.00256,0.2082878 -0.1243048,0.2278583 -0.1243048,0.2278583 L 2.5129768,4.2412577 Z" /><path
       style="opacity:0.910256;fill:#ffffff;fill-opacity:1;stroke:none;stroke-width:0.00655576;stroke-linejoin:round;stroke-opacity:0;paint-order:markers fill stroke"
       d="m 3.6246509,3.3220692 -1.248e-4,1.9652274 0.4674818,0.0046 L 4.0884394,4.4092022 4.5836908,5.2857436 5.1445569,5.2849273 4.5359452,4.2845958 5.1029932,3.3199384 4.5621087,3.323208 4.0884616,4.1969023 4.0839764,3.3183171 Z"
       id="path3" /><path
       style="opacity:0.910256;fill:#ffffff;fill-opacity:1;stroke:none;stroke-width:0.00655576;stroke-linejoin:round;stroke-opacity:0;paint-order:markers fill stroke"
       d="m 5.279025,5.2805158 6.525e-4,-1.9572303 1.133088,0.00258 -0.00108,0.457939 -0.6796685,0.00113 -0.00108,0.2931047 0.5962649,-0.00113 -6.529e-4,0.4499558 -0.5878415,-0.00151 1.254e-4,0.3071863 0.6754782,-0.00245 -6.521e-4,0.4513016 z"
       id="path4" /><path
       style="opacity:0.910256;fill:#ffffff;fill-opacity:1;stroke:none;stroke-width:0.00655576;stroke-linejoin:round;stroke-opacity:0;paint-order:markers fill stroke"
       d="m 6.6207866,5.2782417 0.457152,0.00264 -0.00116,-1.0383481 0.5164125,1.0449452 0.4982716,0.00132 4.322e-4,-1.9619068 H 7.5985513 L 7.6149302,4.3742902 7.094968,3.3134937 6.6077582,3.3179596 Z"
       id="path5" /><path
       style="opacity:0.910256;fill:#ffffff;fill-opacity:1;stroke:none;stroke-width:0.00655576;stroke-linejoin:round;stroke-opacity:0;paint-order:markers fill stroke"
       d="m 3.6627936,3.1127268 c 0,0 1.1401743,-0.9252296 2.114276,-1.141962 0.974099,-0.2167313 0.5259179,1.2481344 0.5259179,1.2481344 L 6.1943216,3.0948266 c 0,0 0.1895541,-0.9541536 -0.7012349,-0.7164476 C 4.602297,2.6160838 3.8484502,3.1035141 3.8484502,3.1035141 Z"
       id="path6" /><path
       id="path7"
       style="opacity:0.910256;fill:#ffffff;fill-opacity:1;stroke:none;stroke-width:0.00655576;stroke-linejoin:round;stroke-opacity:0;paint-order:markers fill stroke"
       d="m 2.0202929,5.4443659 -0.1934445,0.00522 c 0,0 -0.2125333,0.7112448 0.090764,1.0108599 0.3032981,0.299615 0.9056849,0.1767731 0.9056849,0.1767731 0,0 0.6335092,-0.028564 1.9633293,-1.1708899 0.00101,-8.785e-4 0.00166,-0.00144 0.00267,-0.00232 L 4.6164958,5.4600361 C 4.4235914,5.5848142 3.3850728,6.2368656 2.7500143,6.2316949 2.048456,6.2259814 2.0202935,5.4443628 2.0202935,5.4443628 Z" /><g
       style="fill:none;fill-rule:nonzero;stroke:none;stroke-width:0;stroke-linecap:butt;stroke-linejoin:miter;stroke-miterlimit:10;stroke-dasharray:none"
       transform="matrix(0.08941458,0,0,0.07782572,0.23518992,0.68851679)"
       id="g3">
	<path
   d="m 89.161,11.093 c -0.109,-0.329 -0.381,-0.578 -0.719,-0.658 -0.334,-0.078 -0.692,0.02 -0.937,0.266 l -7.189,7.189 c -1.096,1.096 -2.553,1.7 -4.104,1.7 -1.55,0 -3.007,-0.603 -4.104,-1.699 -2.262,-2.263 -2.262,-5.944 0,-8.207 L 79.297,2.495 C 79.542,2.25 79.643,1.895 79.563,1.558 79.484,1.221 79.234,0.949 78.905,0.839 73.042,-1.106 66.689,0.39 62.335,4.745 57.872,9.207 56.419,15.794 58.543,21.693 L 21.693,58.544 C 15.796,56.42 9.208,57.874 4.745,62.336 0.39,66.691 -1.107,73.04 0.838,78.906 c 0.109,0.329 0.381,0.579 0.719,0.658 0.335,0.081 0.692,-0.021 0.937,-0.266 l 7.189,-7.189 c 2.261,-2.263 5.943,-2.263 8.207,0 1.096,1.096 1.699,2.553 1.699,4.104 0,1.551 -0.603,3.007 -1.7,4.104 L 10.7,87.506 c -0.245,0.245 -0.346,0.599 -0.266,0.937 0.08,0.338 0.329,0.609 0.658,0.719 1.7,0.563 3.44,0.839 5.16,0.839 4.218,0 8.317,-1.652 11.41,-4.745 4.463,-4.463 5.917,-11.049 3.793,-16.948 L 68.306,31.457 c 5.9,2.123 12.485,0.671 16.948,-3.793 4.357,-4.355 5.853,-10.705 3.907,-16.571 z"
   style="opacity:1;fill:#000000;fill-rule:nonzero;stroke:none;stroke-width:1;stroke-linecap:butt;stroke-linejoin:miter;stroke-miterlimit:10;stroke-dasharray:none"
   stroke-linecap="round"
   id="path1-8" />
	<path
   d="M 72.088,57.275 C 71.911,57.098 71.675,56.995 71.426,56.983 67.964,56.828 64.348,55.107 61.503,52.262 59.761,50.519 58.438,48.48 57.64,46.365 L 46.517,57.488 c 2.115,0.799 4.154,2.121 5.897,3.863 2.845,2.846 4.565,6.462 4.721,9.923 0.012,0.249 0.115,0.485 0.292,0.662 l 14.876,14.876 c 2.021,2.021 4.676,3.031 7.33,3.031 2.655,0 5.311,-1.01 7.331,-3.031 4.041,-4.042 4.041,-10.619 0,-14.661 z"
   style="opacity:1;fill:#000000;fill-rule:nonzero;stroke:none;stroke-width:1;stroke-linecap:butt;stroke-linejoin:miter;stroke-miterlimit:10;stroke-dasharray:none"
   stroke-linecap="round"
   id="path2-0" />
	<path
   d="m 5.351,14.171 c 0.123,0.219 0.324,0.384 0.563,0.462 l 5.82,1.89 23.869,23.869 4.638,-4.638 L 16.372,11.885 14.481,6.065 C 14.403,5.826 14.238,5.625 14.019,5.502 L 4.714,0.279 C 4.323,0.06 3.834,0.128 3.518,0.444 L 0.293,3.668 C -0.024,3.985 -0.091,4.474 0.128,4.864 Z"
   style="opacity:1;fill:#000000;fill-rule:nonzero;stroke:none;stroke-width:1;stroke-linecap:butt;stroke-linejoin:miter;stroke-miterlimit:10;stroke-dasharray:none"
   stroke-linecap="round"
   id="path3-2" />
</g></g></svg>
