<?xml version="1.0" encoding="UTF-8" standalone="no"?>
<svg
   version="1.1"
   width="32"
   height="32"
   viewBox="0 0 32 32"
   xml:space="preserve"
   id="svg3"
   xmlns="http://www.w3.org/2000/svg"
   xmlns:svg="http://www.w3.org/2000/svg"><defs
   id="defs3" />
<g
   style="opacity:1;fill:none;fill-rule:nonzero;stroke:none;stroke-width:0;stroke-linecap:butt;stroke-linejoin:miter;stroke-miterlimit:10;stroke-dasharray:none"
   transform="matrix(0.31059899,0,0,0.33629908,1.9170974,0.7705594)"
   id="g3">
	<path
   d="m 89.161,11.093 c -0.109,-0.329 -0.381,-0.578 -0.719,-0.658 -0.334,-0.078 -0.692,0.02 -0.937,0.266 l -7.189,7.189 c -1.096,1.096 -2.553,1.7 -4.104,1.7 -1.55,0 -3.007,-0.603 -4.104,-1.699 -2.262,-2.263 -2.262,-5.944 0,-8.207 L 79.297,2.495 C 79.542,2.25 79.643,1.895 79.563,1.558 79.484,1.221 79.234,0.949 78.905,0.839 73.042,-1.106 66.689,0.39 62.335,4.745 57.872,9.207 56.419,15.794 58.543,21.693 L 21.693,58.544 C 15.796,56.42 9.208,57.874 4.745,62.336 0.39,66.691 -1.107,73.04 0.838,78.906 c 0.109,0.329 0.381,0.579 0.719,0.658 0.335,0.081 0.692,-0.021 0.937,-0.266 l 7.189,-7.189 c 2.261,-2.263 5.943,-2.263 8.207,0 1.096,1.096 1.699,2.553 1.699,4.104 0,1.551 -0.603,3.007 -1.7,4.104 L 10.7,87.506 c -0.245,0.245 -0.346,0.599 -0.266,0.937 0.08,0.338 0.329,0.609 0.658,0.719 1.7,0.563 3.44,0.839 5.16,0.839 4.218,0 8.317,-1.652 11.41,-4.745 4.463,-4.463 5.917,-11.049 3.793,-16.948 L 68.306,31.457 c 5.9,2.123 12.485,0.671 16.948,-3.793 4.357,-4.355 5.853,-10.705 3.907,-16.571 z"
   style="opacity:1;fill:#000000;fill-rule:nonzero;stroke:none;stroke-width:1;stroke-linecap:butt;stroke-linejoin:miter;stroke-miterlimit:10;stroke-dasharray:none"
   stroke-linecap="round"
   id="path1" />
	<path
   d="M 72.088,57.275 C 71.911,57.098 71.675,56.995 71.426,56.983 67.964,56.828 64.348,55.107 61.503,52.262 59.761,50.519 58.438,48.48 57.64,46.365 L 46.517,57.488 c 2.115,0.799 4.154,2.121 5.897,3.863 2.845,2.846 4.565,6.462 4.721,9.923 0.012,0.249 0.115,0.485 0.292,0.662 l 14.876,14.876 c 2.021,2.021 4.676,3.031 7.33,3.031 2.655,0 5.311,-1.01 7.331,-3.031 4.041,-4.042 4.041,-10.619 0,-14.661 z"
   style="opacity:1;fill:#000000;fill-rule:nonzero;stroke:none;stroke-width:1;stroke-linecap:butt;stroke-linejoin:miter;stroke-miterlimit:10;stroke-dasharray:none"
   stroke-linecap="round"
   id="path2" />
	<path
   d="m 5.351,14.171 c 0.123,0.219 0.324,0.384 0.563,0.462 l 5.82,1.89 23.869,23.869 4.638,-4.638 L 16.372,11.885 14.481,6.065 C 14.403,5.826 14.238,5.625 14.019,5.502 L 4.714,0.279 C 4.323,0.06 3.834,0.128 3.518,0.444 L 0.293,3.668 C -0.024,3.985 -0.091,4.474 0.128,4.864 Z"
   style="opacity:1;fill:#000000;fill-rule:nonzero;stroke:none;stroke-width:1;stroke-linecap:butt;stroke-linejoin:miter;stroke-miterlimit:10;stroke-dasharray:none"
   stroke-linecap="round"
   id="path3" />
</g>
</svg>
